PathFileType	4	(X/Y/Z)	C:/Users/beibeiliu/ov580/test_trc/User3\sequence.42_training_dense_left.trc
DataRate	CameraRate	NumFrames	NumMarkers	Units	OrigDataRate	OrigDataStartFrame	OrigNumFrames
120	120	21	19	mm	120	26	101
Frame#	Time	ThumbCMC			ThumbMCP			ThumbIP			ThumbTip			IndexMCP			IndexPIP			IndexTip			MiddleMCP			MiddlePIP			MiddleTip			RingMCP			RingPIP			RingTip			PinkyMCP			PinkyPIP			PinkyTip			BackHand1			BackHand2			BackHand3	
		X0	Y0	Z0	X1	Y1	Z1	X2	Y2	Z2	X3	Y3	Z3	X4	Y4	Z4	X5	Y5	Z5	X6	Y6	Z6	X7	Y7	Z7	X8	Y8	Z8	X9	Y9	Z9	X10	Y10	Z10	X11	Y11	Z11	X12	Y12	Z12	X13	Y13	Z13	X14	Y14	Z14	X15	Y15	Z15	X16	Y16	Z16	X17	Y17	Z17	X18	Y18	Z18	
25	0.208333	-144.749	42.1028	12.9698	-135.622	60.4165	-16.3061	-129.389	69.6896	-46.0935	-118.926	70.2053	-67.6287	-182.116	8.20862	-48.7957	-191.224	13.513	-78.5062	-182.641	23.5524	-104.148	-170.156	-16.7977	-53.2528	-171.184	-17.971	-86.2139	-149.328	-8.88472	-114.088	-137.163	-20.7876	-54.9459	-116.296	-7.42609	-76.6736	-93.3396	14.7668	-67.1771	-115.481	-18.1933	-42.8659	-95.8676	-0.424616	-49.8753	-86.0586	19.4094	-32.5265	-145.894	-24.1149	5.30432	-143.714	-17.7054	31.0329	-161.681	5.58866	16.0053	
26	0.216667	-135.232	48.9303	11.5272	-122.179	59.3326	-17.0619	-115.314	64.6959	-43.664	-106.244	62.7287	-65.3702	-178.944	26.7373	-42.6994	-190.806	25.4788	-70.5387	-189.245	30.0292	-96.5613	-177.618	-8.48451	-48.1942	-183.134	-8.20982	-77.2855	-173.216	-10.4711	-109.25	-152.345	-17.2075	-50.687	-131.405	-15.7122	-74.7016	-101.224	-2.5103	-74.5254	-129.418	-29.5625	-36.3465	-107.245	-15.2738	-48.2954	-87.403	-1.12846	-37.0859	-157.512	-18.1802	5.87528	-150.364	-14.1912	39.6073	-162.161	18.0687	17.8294	
27	0.225	-121.727	41.8127	11.9737	-104.75	48.0052	-16.2234	-98.1797	50.2077	-48.7704	-91.0793	44.0448	-70.9471	-173.282	36.122	-40.9269	-184.16	45.7671	-70.4262	-187.386	41.5253	-94.9634	-188.683	13.0409	-43.4724	-199.536	5.88479	-70.1258	-196.242	0.187058	-106.344	-172.468	-14.361	-41.2961	-154.585	-24.5505	-67.9499	-126.276	-28.7764	-70.4776	-157.315	-33.7186	-28.9882	-135.271	-33.1368	-42.4859	-108.692	-24.8581	-30.1575	-169.762	0.409136	13.2193	-159.821	-1.32488	43.6193	-159.065	29.0795	18.2047	
28	0.233333	-113.35	26.6049	8.38026	-102.592	16.4715	-15.7628	-96.1119	9.8014	-45.994	-96.3408	-2.04237	-66.3278	-166.403	39.8109	-44.2893	-173.456	43.943	-71.0852	-176.1	36.5877	-102.607	-188.561	26.126	-37.2563	-205.325	23.2559	-68.0266	-208.101	7.1907	-94.4156	-188.905	-5.64903	-37.8238	-179.445	-25.4029	-60.2665	-154.579	-42.0973	-57.6175	-184.362	-24.6597	-20.7564	-163.268	-42.9158	-30.8991	-137.625	-42.7081	-16.4813	-183.052	12.0257	15.6453	-167.389	13.2061	48.0845	-153.322	34.5851	21.1807	
29	0.241667	-115.233	-0.541196	19.528	-109.387	-17.2746	-7.76384	-100.071	-31.108	-33.8858	-108.431	-48.2508	-52.7567	-158.782	17.3597	-42.3969	-160.132	16.1875	-74.5134	-158.228	-3.08966	-99.8795	-189.11	14.1755	-37.7888	-199.407	6.81208	-67.8483	-200.071	-21.3732	-93.4809	-193.374	-14.0899	-31.6822	-189.774	-41.1986	-45.9159	-171.376	-62.4424	-30.9114	-196.19	-29.7423	-12.0285	-181.235	-55.1449	-16.1001	-158.183	-53.9074	2.29551	-179.835	12.1571	19.8017	-171.694	12.0941	47.5672	-148.552	23.3346	22.2951	
30	0.25	-118.817	-18.009	28.8448	-106.818	-41.3529	6.37966	-108.678	-60.6569	-11.5185	-120.418	-78.6343	-29.3276	-144.174	-8.158	-43.2481	-148.807	-20.042	-67.415	-149.388	-51.5519	-82.7169	-177.022	-7.27997	-35.1858	-187.167	-23.2084	-65.099	-187.192	-56.9851	-74.1806	-189.042	-30.8946	-27.1425	-187.975	-62.7105	-28.5292	-166.884	-74.1083	-6.84001	-197.234	-42.7711	-4.13153	-186.259	-66.0186	1.22631	-162.145	-60.3681	24.6885	-181.389	5.57075	18.4365	-172.607	9.99027	50.3172	-145.423	11.1226	24.6875	
31	0.258333	-107.279	-18.0449	43.8774	-92.4391	-45.1453	25.4819	-92.6564	-64.8513	7.62346	-100.297	-86.6017	-9.25239	-126.243	-21.6435	-33.9776	-120.601	-39.6381	-56.6497	-117.906	-72.0407	-59.4922	-153.741	-23.0812	-36.8098	-156.129	-47.3315	-58.2521	-150.139	-84.2787	-55.6753	-168.942	-43.7416	-17.9263	-163.217	-72.4572	-17.9396	-147.86	-77.402	13.1514	-181.149	-50.5203	3.54608	-166.279	-73.6954	16.4058	-151.699	-61.0152	36.353	-167.37	0.296328	19.1777	-163.179	8.77146	50.9904	-130.149	6.70421	28.4872	
32	0.266667	-89.8396	3.00821	51.19	-68.1973	-17.5874	38.1201	-55.7448	-39.6768	20.5078	-65.3205	-60.9004	5.21073	-93.1448	-4.79255	-22.5721	-82.2648	-26.6887	-46.9228	-72.3354	-56.4044	-40.6988	-119.51	-16.9133	-30.6396	-109.924	-41.2188	-52.6609	-93.4123	-73.3734	-38.658	-127.416	-39.5092	-15.982	-117.186	-67.4803	-8.97673	-109.089	-63.326	23.7835	-143.028	-51.4351	4.27877	-123.101	-63.6253	19.8475	-120.169	-43.6852	43.8462	-148.825	2.69261	16.395	-151.886	13.3602	48.7821	-122.083	17.9331	33.3446	
33	0.275	-77.9071	38.8546	52.3062	-47.4542	26.4399	40.2709	-26.4774	7.82817	22.7222	-27.0288	-14.0344	13.468	-72.7174	21.1091	-23.2842	-49.6451	7.12892	-42.9342	-28.2039	-12.9328	-28.2477	-84.3963	4.19425	-33.4288	-63.6364	-13.7538	-48.8748	-38.909	-34.4583	-30.865	-83.8591	-21.9661	-14.4913	-65.2368	-39.8893	-2.39075	-65.8263	-31.2054	31.706	-93.817	-38.6938	3.73034	-76.9588	-39.0759	23.8893	-85.5123	-25.5971	48.7539	-125.87	11.0199	11.8836	-138.515	17.1067	38.5617	-113.163	36.4803	27.3099	
34	0.283333	-85.4193	57.4408	46.7377	-50.6786	61.5607	39.5903	-25.3815	52.9277	26.4394	-13.3443	29.7845	16.4801	-66.0083	40.9145	-24.8832	-33.7718	35.0292	-40.7786	-11.2446	28.9995	-26.8356	-67.6382	17.5466	-34.7216	-37.2427	8.91337	-45.0995	-7.23345	4.44634	-20.916	-59.0448	-5.89399	-11.3694	-30.2458	-6.44529	4.48764	-39.1104	1.97016	36.7203	-64.8459	-20.6132	8.5372	-44.567	-11.8123	30.1746	-61.1599	1.62032	50.7559	-111.355	7.99417	10.5913	-129.291	10.0553	39.396	-112.98	36.9376	22.3134	
35	0.291667	-100.63	57.034	43.2519	-69.066	71.4866	30.9572	-43.1463	72.4626	22.4689	-20.8275	57.2571	19.0581	-68.6926	37.5429	-27.0714	-36.9562	47.6989	-40.6488	-14.5902	52.3778	-26.0672	-57.6964	8.20038	-28.6812	-27.5101	17.0377	-38.3316	0.382998	30.5274	-17.5565	-43.2688	-0.566823	-2.50345	-18.1294	13.7615	13.3164	-30.3936	24.9429	39.7483	-39.383	-8.94745	19.1746	-31.4696	9.54848	39.8102	-52.0261	14.3452	57.4491	-97.2026	-9.49879	15.2403	-117.473	-9.37052	42.2484	-113.383	21.637	24.28	
36	0.3	-117.841	36.7649	38.4509	-93.4583	57.7703	23.852	-69.098	67.6935	14.5476	-39.7997	65.9692	10.7324	-73.8059	13.0819	-24.2767	-51.8217	25.7508	-41.9094	-28.9795	45.213	-31.0404	-58.8991	-7.52566	-19.6885	-32.8271	5.30626	-34.6897	-7.98494	28.3271	-17.4193	-42.8228	-6.27453	6.42229	-23.1863	16.0612	14.3065	-42.5092	32.966	41.5864	-37.4725	-5.70959	28.3603	-35.8503	16.4443	41.8184	-59.6296	19.7498	61.3374	-89.3987	-29.1227	30.5418	-109.435	-29.4372	51.8471	-115.367	-4.21051	28.3955	
37	0.308333	-129.078	19.4075	36.0659	-110.847	40.6165	14.8973	-90.1317	51.8893	2.51538	-62.0022	52.4548	-4.80998	-90.0352	-10.4494	-28.3892	-71.4676	2.51509	-49.188	-53.6419	27.4304	-43.9376	-72.7771	-28.4645	-15.7274	-47.8406	-17.4455	-36.3411	-26.9948	11.2012	-27.0035	-53.5525	-19.8765	5.96271	-38.4417	10.2266	8.49974	-55.2425	23.9553	36.6953	-48.1509	-19.4766	28.6451	-44.9615	8.58216	38.1867	-66.7986	18.2901	52.5027	-100.398	-39.116	36.6578	-112.908	-41.9374	63.4932	-127.241	-19.2535	30.3367	
38	0.316667	-144.25	7.21149	35.4518	-131.249	27.3985	8.00551	-111.092	33.0059	-13.9517	-86.1328	27.2149	-18.3445	-121.639	-33.597	-24.4199	-106.132	-26.5711	-55.2832	-82.5591	-6.03415	-55.7657	-103.859	-49.4784	-18.9666	-78.397	-45.5743	-42.5253	-54.4387	-14.0985	-40.0174	-78.584	-36.8688	-3.04757	-59.9498	-11.7304	-4.72776	-70.769	9.01673	19.2765	-68.7813	-31.4031	19.5763	-61.9207	-5.83198	26.2578	-83.071	7.19052	48.2682	-115.178	-51.1729	41.9646	-129.84	-44.3552	66.3123	-146.843	-30.5082	36.2927	
39	0.325	-157.038	1.06686	37.315	-145.345	13.1574	9.62064	-127.601	14.6449	-20.1899	-102.115	2.81151	-29.7196	-147.535	-50.4111	-23.9571	-137.948	-50.082	-50.8872	-112.338	-27.2705	-59.1436	-128.168	-69.0329	-16.1993	-108.705	-65.9608	-43.11	-85.3092	-41.4463	-46.9903	-104.498	-53.2435	-4.64949	-82.4868	-30.5535	-10.3045	-87.8045	-6.57095	14.5753	-88.0877	-46.2588	14.4424	-80.9987	-20.5486	18.526	-97.3925	-7.62097	41.1973	-138.003	-59.1618	44.0278	-141.907	-49.0911	72.2475	-164.125	-33.2516	43.7412	
40	0.333333	-164.546	7.54559	37.9089	-151.179	10.4256	8.52658	-138.366	7.66648	-19.6021	-118.297	-8.51121	-32.7553	-173.383	-49.9622	-18.6142	-164.35	-49.8003	-48.112	-137.342	-37.3867	-56.8185	-159.942	-69.3804	-13.6975	-145.45	-72.394	-42.3978	-116.402	-48.0732	-51.4786	-128.778	-63.6854	-4.21897	-105.265	-45.8999	-14.6528	-105.342	-19.5819	10.4072	-115.271	-60.6647	12.8797	-97.1572	-37.9785	14.6302	-107.868	-18.8015	35.7163	-156.093	-63.4617	45.7122	-158.485	-48.6198	75.5719	-177.447	-31.4274	49.7514	
41	0.341667	-156.635	15.1985	43.9616	-141.473	14.0479	16.6457	-132.028	8.35136	-18.1144	-125.046	-15.1487	-30.0571	-191.436	-20.7205	-15.1491	-187.334	-23.7988	-46.0473	-156.842	-23.9483	-56.4498	-190.517	-48.1799	-15.6249	-179.936	-52.1883	-46.3276	-142.294	-48.3644	-52.847	-159.315	-59.689	-7.02784	-131.617	-50.2328	-19.2573	-119.036	-31.3201	6.00022	-140.863	-66.6622	7.92347	-118.175	-49.7729	10.2745	-119.013	-32.8623	37.8742	-180.511	-49.3766	45.2074	-174.775	-38.6841	74.2594	-184.331	-11.7857	53.5065	
42	0.35	-140.705	15.386	44.4194	-125.228	16.6064	15.1707	-124.209	4.04728	-15.2953	-126.306	-15.0845	-28.5213	-188.673	16.3913	-12.3967	-183.699	13.2148	-46.7385	-154.756	-0.0396561	-56.2996	-202.933	-10.364	-17.0649	-196.852	-17.9086	-47.4847	-158.051	-27.2922	-56.4508	-181.44	-37.0905	-11.0128	-153.125	-46.6445	-22.6051	-133.138	-36.8264	1.55176	-168.762	-54.5892	1.99964	-140.635	-50.7706	3.34028	-132.802	-38.382	29.5806	-192.696	-24.2672	45.6648	-182.071	-24.3983	74.1193	-177.466	6.42183	55.6019	
43	0.358333	-129.586	12.4273	45.8559	-120.532	7.83693	14.7962	-117.405	2.64698	-13.7646	-132.825	-15.0368	-34.3723	-178.016	37.1151	-11.4826	-170.756	42.0678	-42.1049	-152.737	18.2824	-55.5046	-198.211	20.6036	-12.0705	-193.269	18.6918	-48.533	-168.238	-7.00522	-56.0199	-189.652	-10.1058	-16.615	-171.077	-27.5552	-29.6013	-148.969	-35.9773	-2.23216	-184.848	-30.5438	-4.57271	-160.697	-42.6638	-2.89613	-148.073	-38.9867	22.4146	-195.484	0.360747	42.015	-188.047	-11.5498	72.8385	-166.679	19.198	57.2598	
44	0.366667	-124.824	5.14035	47.6075	-110.522	1.89569	13.0794	-113.44	0.0320933	-20.8913	-135.753	-9.78429	-32.5042	-153.652	50.6905	-8.08352	-149.521	53.0698	-40.1099	-140.027	20.8419	-51.3389	-178.066	44.4199	-10.0952	-179.133	42.0843	-43.8286	-160.754	7.07877	-54.1617	-186.038	10.6477	-17.8045	-174.043	-11.0472	-30.9422	-157.499	-27.4887	-2.95221	-190.847	-8.46731	-3.1591	-169.468	-31.5199	-2.96311	-157.252	-29.8155	24.619	-187.332	17.8741	43.6526	-180.205	6.25538	70.7165	-153.945	28.4697	55.2824	
45	0.375	-115.532	-0.403778	49.1058	-103.629	-6.77409	15.9696	-106.892	-11.7176	-10.9925	-123.992	-17.1542	-28.3251	-134.306	47.9646	-8.00674	-127.299	43.4371	-40.1442	-124.396	11.5997	-44.8387	-160.658	46.5581	-14.0145	-161.22	35.1594	-46.1325	-149.534	0.816075	-47.8651	-170.63	16.9452	-14.713	-164.389	-9.70119	-27.4857	-152.547	-25.5243	4.56713	-181.394	-6.17755	-5.00658	-168.729	-29.5489	0.719932	-158.536	-30.5017	27.3201	-179.688	23.1735	44.6029	-173.206	12.4513	74.3746	-142.876	25.4529	58.604	
